<svg width="37" height="39" viewBox="0 0 37 39" fill="none" xmlns="http://www.w3.org/2000/svg">
<path d="M0 0.130859V38.2512H36.2285V0.130859H0ZM30.1904 4.36645C31.3014 4.36645 32.2031 5.31523 32.2031 6.48425C32.2031 7.65327 31.3014 8.60205 30.1904 8.60205C29.0794 8.60205 28.1777 7.65327 28.1777 6.48425C28.1777 5.31523 29.0794 4.36645 30.1904 4.36645ZM18.1143 8.60205C23.6713 8.60205 28.1777 13.3438 28.1777 19.191C28.1777 25.0383 23.6713 29.78 18.1143 29.78C12.5572 29.78 8.05078 25.0383 8.05078 19.191C8.05078 13.3438 12.5572 8.60205 18.1143 8.60205ZM18.1143 12.8376C14.7795 12.8376 12.0762 15.6822 12.0762 19.191C12.0762 22.6999 14.7795 25.5444 18.1143 25.5444C21.449 25.5444 24.1523 22.6999 24.1523 19.191C24.1523 15.6822 21.449 12.8376 18.1143 12.8376Z" fill="#AAAAAA"/>
</svg>
