<svg width="37" height="39" viewBox="0 0 37 39" fill="none" xmlns="http://www.w3.org/2000/svg">
<path d="M36.2285 0.130859H0V38.2512H36.2285V0.130859ZM12.0762 29.78H6.99814V14.9554H12.0762V29.78ZM9.44759 12.2383C7.8958 12.2383 6.85927 11.1498 6.85927 9.69695C6.85927 8.24414 7.89379 7.15559 9.61867 7.15559C11.1705 7.15559 12.207 8.24414 12.207 9.69695C12.207 11.1498 11.1725 12.2383 9.44759 12.2383ZM30.1904 29.78H25.2754V21.6773C25.2754 19.4367 23.9652 18.92 23.4741 18.92C22.983 18.92 21.3446 19.2652 21.3446 21.6773C21.3446 22.0225 21.3446 29.78 21.3446 29.78H16.2666V14.9554H21.3446V17.0245C21.9988 15.8174 23.309 14.9554 25.7665 14.9554C28.224 14.9554 30.1904 17.0245 30.1904 21.6773V29.78Z" fill="#AAAAAA"/>
</svg>
